<svg width="24" height="24" viewBox="0 0 24 24" fill="none" xmlns="http://www.w3.org/2000/svg">
<rect width="24" height="24" fill="white"/>
<mask id="path-1-inside-1_2179_9065" fill="white">
<path fill-rule="evenodd" clip-rule="evenodd" d="M6.75 3C7.16421 3 7.5 3.33579 7.5 3.75V4H16.5V3.75C16.5 3.33579 16.8358 3 17.25 3C17.6642 3 18 3.33579 18 3.75V4H19C20.1046 4 21 4.89543 21 6V19C21 20.1046 20.1046 21 19 21H5C3.89543 21 3 20.1046 3 19V6C3 4.89543 3.89543 4 5 4H6V3.75C6 3.33579 6.33579 3 6.75 3ZM6 9H18V10.5H6V9ZM8.25 13.5V12H6.75V13.5H8.25ZM9.75 12H11.25V13.5H9.75V12ZM14.25 12H12.75V13.5H14.25V12ZM15.75 13.5V12H17.25V13.5H15.75ZM8.25 16.5V15H6.75V16.5H8.25ZM9.75 15H11.25V16.5H9.75V15ZM14.25 15H12.75V16.5H14.25V15ZM15.75 16.5V15H17.25V16.5H15.75Z"/>
</mask>
<path fill-rule="evenodd" clip-rule="evenodd" d="M6.75 3C7.16421 3 7.5 3.33579 7.5 3.75V4H16.5V3.75C16.5 3.33579 16.8358 3 17.25 3C17.6642 3 18 3.33579 18 3.75V4H19C20.1046 4 21 4.89543 21 6V19C21 20.1046 20.1046 21 19 21H5C3.89543 21 3 20.1046 3 19V6C3 4.89543 3.89543 4 5 4H6V3.75C6 3.33579 6.33579 3 6.75 3ZM6 9H18V10.5H6V9ZM8.25 13.5V12H6.75V13.5H8.25ZM9.75 12H11.25V13.5H9.75V12ZM14.25 12H12.75V13.5H14.25V12ZM15.75 13.5V12H17.25V13.5H15.75ZM8.25 16.5V15H6.75V16.5H8.25ZM9.75 15H11.25V16.5H9.75V15ZM14.25 15H12.75V16.5H14.25V15ZM15.75 16.5V15H17.25V16.5H15.75Z" fill="#9F9F9F"/>
<path d="M7.5 4H6C6 4.82843 6.67157 5.5 7.5 5.5V4ZM16.5 4V5.5C17.3284 5.5 18 4.82843 18 4H16.5ZM18 4H16.5C16.5 4.82843 17.1716 5.5 18 5.5V4ZM6 4V5.5C6.82843 5.5 7.5 4.82843 7.5 4H6ZM18 9H19.5C19.5 8.17157 18.8284 7.5 18 7.5V9ZM6 9V7.5C5.17157 7.5 4.5 8.17157 4.5 9H6ZM18 10.5V12C18.8284 12 19.5 11.3284 19.5 10.5H18ZM6 10.5H4.5C4.5 11.3284 5.17157 12 6 12V10.5ZM8.25 12H9.75C9.75 11.1716 9.07843 10.5 8.25 10.5V12ZM8.25 13.5V15C9.07843 15 9.75 14.3284 9.75 13.5H8.25ZM6.75 12V10.5C5.92157 10.5 5.25 11.1716 5.25 12H6.75ZM6.75 13.5H5.25C5.25 14.3284 5.92157 15 6.75 15V13.5ZM11.25 12H12.75C12.75 11.1716 12.0784 10.5 11.25 10.5V12ZM9.75 12V10.5C8.92157 10.5 8.25 11.1716 8.25 12H9.75ZM11.25 13.5V15C12.0784 15 12.75 14.3284 12.75 13.5H11.25ZM9.75 13.5H8.25C8.25 14.3284 8.92157 15 9.75 15V13.5ZM12.75 12V10.5C11.9216 10.5 11.25 11.1716 11.25 12H12.75ZM14.25 12H15.75C15.75 11.1716 15.0784 10.5 14.25 10.5V12ZM12.75 13.5H11.25C11.25 14.3284 11.9216 15 12.75 15V13.5ZM14.25 13.5V15C15.0784 15 15.75 14.3284 15.75 13.5H14.25ZM15.75 12V10.5C14.9216 10.5 14.25 11.1716 14.25 12H15.75ZM15.75 13.5H14.25C14.25 14.3284 14.9216 15 15.75 15V13.5ZM17.25 12H18.75C18.75 11.1716 18.0784 10.5 17.25 10.5V12ZM17.25 13.5V15C18.0784 15 18.75 14.3284 18.75 13.5H17.25ZM8.25 15H9.75C9.75 14.1716 9.07843 13.5 8.25 13.5V15ZM8.25 16.5V18C9.07843 18 9.75 17.3284 9.75 16.5H8.25ZM6.75 15V13.5C5.92157 13.5 5.25 14.1716 5.25 15H6.75ZM6.75 16.5H5.25C5.25 17.3284 5.92157 18 6.75 18V16.5ZM11.25 15H12.75C12.75 14.1716 12.0784 13.5 11.25 13.5V15ZM9.75 15V13.5C8.92157 13.5 8.25 14.1716 8.25 15H9.75ZM11.25 16.5V18C12.0784 18 12.75 17.3284 12.75 16.5H11.25ZM9.75 16.5H8.25C8.25 17.3284 8.92157 18 9.75 18V16.5ZM12.75 15V13.5C11.9216 13.5 11.25 14.1716 11.25 15H12.75ZM14.25 15H15.75C15.75 14.1716 15.0784 13.5 14.25 13.5V15ZM12.75 16.5H11.25C11.25 17.3284 11.9216 18 12.75 18V16.5ZM14.25 16.5V18C15.0784 18 15.75 17.3284 15.75 16.5H14.25ZM15.75 15V13.5C14.9216 13.5 14.25 14.1716 14.25 15H15.75ZM15.75 16.5H14.25C14.25 17.3284 14.9216 18 15.75 18V16.5ZM17.25 15H18.75C18.75 14.1716 18.0784 13.5 17.25 13.5V15ZM17.25 16.5V18C18.0784 18 18.75 17.3284 18.75 16.5H17.25ZM9 3.75C9 2.50736 7.99264 1.5 6.75 1.5V4.5C6.33579 4.5 6 4.16421 6 3.75H9ZM9 4V3.75H6V4H9ZM16.5 2.5H7.5V5.5H16.5V2.5ZM15 3.75V4H18V3.75H15ZM17.25 1.5C16.0074 1.5 15 2.50736 15 3.75H18C18 4.16421 17.6642 4.5 17.25 4.5V1.5ZM19.5 3.75C19.5 2.50736 18.4926 1.5 17.25 1.5V4.5C16.8358 4.5 16.5 4.16421 16.5 3.75H19.5ZM19.5 4V3.75H16.5V4H19.5ZM19 2.5H18V5.5H19V2.5ZM22.5 6C22.5 4.067 20.933 2.5 19 2.5V5.5C19.2761 5.5 19.5 5.72386 19.5 6H22.5ZM22.5 19V6H19.5V19H22.5ZM19 22.5C20.933 22.5 22.5 20.933 22.5 19H19.5C19.5 19.2761 19.2761 19.5 19 19.5V22.5ZM5 22.5H19V19.5H5V22.5ZM1.5 19C1.5 20.933 3.067 22.5 5 22.5V19.5C4.72386 19.5 4.5 19.2761 4.5 19H1.5ZM1.5 6V19H4.5V6H1.5ZM5 2.5C3.067 2.5 1.5 4.067 1.5 6H4.5C4.5 5.72386 4.72386 5.5 5 5.5V2.5ZM6 2.5H5V5.5H6V2.5ZM4.5 3.75V4H7.5V3.75H4.5ZM6.75 1.5C5.50736 1.5 4.5 2.50736 4.5 3.75H7.5C7.5 4.16421 7.16421 4.5 6.75 4.5V1.5ZM18 7.5H6V10.5H18V7.5ZM19.5 10.5V9H16.5V10.5H19.5ZM6 12H18V9H6V12ZM4.5 9V10.5H7.5V9H4.5ZM6.75 12V13.5H9.75V12H6.75ZM6.75 13.5H8.25V10.5H6.75V13.5ZM8.25 13.5V12H5.25V13.5H8.25ZM8.25 12H6.75V15H8.25V12ZM11.25 10.5H9.75V13.5H11.25V10.5ZM12.75 13.5V12H9.75V13.5H12.75ZM9.75 15H11.25V12H9.75V15ZM8.25 12V13.5H11.25V12H8.25ZM12.75 13.5H14.25V10.5H12.75V13.5ZM14.25 13.5V12H11.25V13.5H14.25ZM14.25 12H12.75V15H14.25V12ZM12.75 12V13.5H15.75V12H12.75ZM14.25 12V13.5H17.25V12H14.25ZM17.25 10.5H15.75V13.5H17.25V10.5ZM18.75 13.5V12H15.75V13.5H18.75ZM15.75 15H17.25V12H15.75V15ZM6.75 15V16.5H9.75V15H6.75ZM6.75 16.5H8.25V13.5H6.75V16.5ZM8.25 16.5V15H5.25V16.5H8.25ZM8.25 15H6.75V18H8.25V15ZM11.25 13.5H9.75V16.5H11.25V13.5ZM12.75 16.5V15H9.75V16.5H12.75ZM9.75 18H11.25V15H9.75V18ZM8.25 15V16.5H11.25V15H8.25ZM12.75 16.5H14.25V13.5H12.75V16.5ZM14.25 16.5V15H11.25V16.5H14.25ZM14.25 15H12.75V18H14.25V15ZM12.75 15V16.5H15.75V15H12.75ZM14.25 15V16.5H17.25V15H14.25ZM17.25 13.5H15.75V16.5H17.25V13.5ZM18.75 16.5V15H15.75V16.5H18.75ZM15.75 18H17.25V15H15.75V18Z" fill="#9F9F9F" mask="url(#path-1-inside-1_2179_9065)"/>
</svg>
