<svg width="529" height="718" viewBox="0 0 529 718" fill="none" xmlns="http://www.w3.org/2000/svg">
<g clip-path="url(#clip0_2_7)">
<path d="M223.033 244L162.033 266.2V384.333H95.3667V219.333H95.8667L271.467 155.4C279.6 152.3 288.467 150.733 297.533 151.033C315.65 151.485 333.176 157.57 347.675 168.443C362.174 179.315 372.925 194.435 378.433 211.7C384.633 231.133 390.3 244.267 395.433 251.1C410.947 271.787 431.069 288.574 454.202 300.129C477.334 311.684 502.842 317.689 528.7 317.667V384.333C494.277 384.371 460.273 376.776 429.137 362.096C398.001 347.415 370.506 326.014 348.633 299.433L325.4 431.3L395.367 490V717.667H328.7V521.067L253.033 457.6L228.8 595.167L-1 554.667L10.6 489L174.733 517.933L223.033 244ZM345.367 134.333C327.686 134.333 310.729 127.31 298.226 114.807C285.724 102.305 278.7 85.3478 278.7 67.6667C278.7 49.9856 285.724 33.0286 298.226 20.5262C310.729 8.02379 327.686 1 345.367 1C363.048 1 380.005 8.02379 392.507 20.5262C405.01 33.0286 412.033 49.9856 412.033 67.6667C412.033 85.3478 405.01 102.305 392.507 114.807C380.005 127.31 363.048 134.333 345.367 134.333Z" fill="#F8A83C"/>
</g>
<defs>
<clipPath id="clip0_2_7">
<rect width="529" height="718" fill="white"/>
</clipPath>
</defs>
</svg>
